<svg width="500" height="400" viewBox="0 0 500 400" fill="none" xmlns="http://www.w3.org/2000/svg">
<g clip-path="url(#clip0)">
<path d="M402.54 96.8867H179.1C171.42 97.0827 163.85 98.7695 156.814 101.853C134.1 111.92 120.88 127.72 117.147 162.76V243.713L57.9402 243.087C46.0335 243.087 41.6802 261.807 41.6802 274.46H441.62V138.413C441.62 115.48 424.147 96.8867 402.54 96.8867Z" fill="url(#paint0_linear)"/>
<path d="M187.233 105.373H408.62C415.813 105.373 422.711 108.231 427.797 113.317C432.883 118.403 435.74 125.301 435.74 132.493V267.28H187.233V105.373Z" fill="#D62B4D"/>
<path d="M182 105.373C197.929 105.373 213.205 111.701 224.469 122.964C235.732 134.228 242.06 149.504 242.06 165.433V237.887C242.06 245.682 238.963 253.159 233.451 258.671C227.939 264.183 220.462 267.28 212.667 267.28H151.333C143.538 267.28 136.061 264.183 130.549 258.671C125.037 253.159 121.94 245.682 121.94 237.887V165.433C121.94 149.504 128.268 134.228 139.531 122.964C150.795 111.701 166.071 105.373 182 105.373V105.373Z" fill="#F5375D"/>
<path opacity="0.2" d="M69.7268 246.387H242.073V267.28H48.8335C48.8335 261.739 51.0348 256.424 54.953 252.506C58.8713 248.588 64.1856 246.387 69.7268 246.387V246.387Z" fill="#D62B4D"/>
<path opacity="0.2" d="M182 105.373C197.929 105.373 213.205 111.701 224.469 122.964C235.732 134.228 242.06 149.504 242.06 165.433V237.887C242.06 245.682 238.963 253.159 233.451 258.671C227.939 264.183 220.462 267.28 212.667 267.28H151.333C143.538 267.28 136.061 264.183 130.549 258.671C125.037 253.159 121.94 245.682 121.94 237.887V165.433C121.94 149.504 128.268 134.228 139.531 122.964C150.795 111.701 166.071 105.373 182 105.373Z" fill="#D62B4D"/>
<path d="M287.12 267.28H237.507V485.98H287.12V267.28Z" fill="url(#paint1_linear)"/>
<path d="M283.853 267.28H242.073V482.067H283.853V267.28Z" fill="#ECEFF1"/>
<path d="M122.426 136.282L116.25 187.027L198.82 197.078L204.997 146.333L122.426 136.282Z" fill="url(#paint2_linear)"/>
<path d="M123.286 137.666L117.522 185.024L197.293 194.733L203.058 147.376L123.286 137.666Z" fill="#FAF8E4"/>
<g opacity="0.6">
<path opacity="0.6" d="M125.379 149.219L135.531 150.454L136.445 142.943L126.293 141.708L125.379 149.219Z" fill="#E32B4F"/>
<path opacity="0.6" d="M131.926 164.842L170.898 169.586L171.195 167.15L132.223 162.406L131.926 164.842Z" fill="#D62B4D"/>
<path opacity="0.6" d="M141.841 171.406L170.258 174.865L170.455 173.244L142.038 169.785L141.841 171.406Z" fill="#D62B4D"/>
</g>
<path d="M156.07 147.444L149.894 198.19L232.464 208.241L238.641 157.495L156.07 147.444Z" fill="url(#paint3_linear)"/>
<path d="M156.93 148.836L151.166 196.193L230.937 205.903L236.701 158.545L156.93 148.836Z" fill="#FAF8E4"/>
<g opacity="0.6">
<path opacity="0.6" d="M159.028 160.389L169.18 161.625L170.094 154.114L159.942 152.878L159.028 160.389Z" fill="#E32B4F"/>
<path opacity="0.6" d="M165.575 176.012L204.547 180.756L204.844 178.321L165.871 173.577L165.575 176.012Z" fill="#D62B4D"/>
<path opacity="0.6" d="M175.477 182.576L203.894 186.035L204.091 184.414L175.674 180.955L175.477 182.576Z" fill="#D62B4D"/>
</g>
<path d="M84.5856 152.215L76.2129 221.001L188.133 234.624L196.506 165.838L84.5856 152.215Z" fill="url(#paint4_linear)"/>
<path d="M85.7569 154.081L77.9424 218.281L186.071 231.442L193.885 167.243L85.7569 154.081Z" fill="white"/>
<g opacity="0.6">
<path opacity="0.6" d="M88.5931 169.746L102.352 171.421L103.59 161.242L89.832 159.568L88.5931 169.746Z" fill="#E32B4F"/>
<path opacity="0.6" d="M97.457 190.93L150.287 197.36L150.689 194.058L97.859 187.627L97.457 190.93Z" fill="#E32B4F"/>
<path opacity="0.6" d="M110.9 199.823L149.422 204.512L149.691 202.309L111.168 197.62L110.9 199.823Z" fill="#E32B4F"/>
</g>
<path d="M130.192 167.345L121.819 236.131L233.74 249.754L242.113 180.968L130.192 167.345Z" fill="url(#paint5_linear)"/>
<path d="M131.356 169.224L123.542 233.424L231.67 246.585L239.485 182.386L131.356 169.224Z" fill="white"/>
<g opacity="0.6">
<path opacity="0.6" d="M134.197 184.886L147.955 186.561L149.194 176.383L135.436 174.708L134.197 184.886Z" fill="#E32B4F"/>
<path opacity="0.6" d="M143.061 206.07L195.891 212.5L196.293 209.198L143.463 202.768L143.061 206.07Z" fill="#E32B4F"/>
<path opacity="0.6" d="M156.503 214.963L195.025 219.652L195.293 217.449L156.771 212.76L156.503 214.963Z" fill="#E32B4F"/>
</g>
<path opacity="0.2" d="M181.36 106.027C173.503 106.02 165.722 107.561 158.46 110.56C161.289 110.154 164.142 109.949 167 109.947V109.947C174.887 109.947 182.697 111.5 189.984 114.518C197.271 117.537 203.892 121.961 209.469 127.538C215.046 133.115 219.47 139.736 222.488 147.023C225.506 154.31 227.06 162.119 227.06 170.007V265.34H241.42V166.087C241.42 150.158 235.092 134.881 223.829 123.618C212.565 112.354 197.289 106.027 181.36 106.027Z" fill="#B50125"/>
<path d="M69.7268 246.387H242.073V267.28H48.8335C48.8335 261.739 51.0348 256.424 54.953 252.506C58.8713 248.588 64.1856 246.387 69.7268 246.387V246.387Z" fill="#D62B4D"/>
<path d="M444.914 47.0533L442.934 48.02L443.16 47.6133L442.987 47.6667L443.234 47.4867L469.914 0L483.554 11.6333L495.26 22.4667L491.9 24.1067L495.674 30.7667L444.914 47.0533Z" fill="url(#paint6_linear)"/>
<path d="M482.207 12.8733L492.9 22.7933L444.42 46.8933L470.22 13.8267L482.207 12.8733Z" fill="#B90F31"/>
<path d="M469.727 2.23334L444.42 46.8933L482.207 12.8733L469.727 2.23334Z" fill="#D62B4D"/>
<path d="M493.213 30.4667L444.473 46.5667L485.213 16.1533L493.213 30.4667Z" fill="#D62B4D"/>
<path d="M87.7798 57.98L90.9665 58.4733L90.4732 58.0067H90.7465L90.3198 57.86L32.4132 2.94666L18.3598 25.1267L6.6665 45.36L12.0798 46.2L9.67984 57.16L87.7798 57.98Z" fill="url(#paint7_linear)"/>
<path d="M20.7864 26.28L10.1064 44.7933L88.3998 57.54L37.9731 22.4267L20.7864 26.28Z" fill="#B90F31"/>
<path d="M33.6466 5.99332L88.4 57.54L20.7866 26.28L33.6466 5.99332Z" fill="#D62B4D"/>
<path d="M12.9932 55.6733L88.1865 57.1133L17.9932 32.18L12.9932 55.6733Z" fill="#D62B4D"/>
</g>
<defs>
<linearGradient id="paint0_linear" x1="95331.4" y1="64346.5" x2="335275" y2="64346.5" gradientUnits="userSpaceOnUse">
<stop stop-color="#808080" stop-opacity="0.25"/>
<stop offset="0.54" stop-color="#808080" stop-opacity="0.12"/>
<stop offset="1" stop-color="#808080" stop-opacity="0.1"/>
</linearGradient>
<linearGradient id="paint1_linear" x1="262.313" y1="485.98" x2="262.313" y2="267.28" gradientUnits="userSpaceOnUse">
<stop stop-color="#808080" stop-opacity="0.25"/>
<stop offset="0.54" stop-color="#808080" stop-opacity="0.12"/>
<stop offset="1" stop-color="#808080" stop-opacity="0.1"/>
</linearGradient>
<linearGradient id="paint2_linear" x1="-17166.2" y1="30053.8" x2="-16395.5" y2="23722.3" gradientUnits="userSpaceOnUse">
<stop stop-color="#808080" stop-opacity="0.25"/>
<stop offset="0.54" stop-color="#808080" stop-opacity="0.12"/>
<stop offset="1" stop-color="#808080" stop-opacity="0.1"/>
</linearGradient>
<linearGradient id="paint3_linear" x1="-14661.9" y1="31252.2" x2="-13891.2" y2="24920.7" gradientUnits="userSpaceOnUse">
<stop stop-color="#808080" stop-opacity="0.25"/>
<stop offset="0.54" stop-color="#808080" stop-opacity="0.12"/>
<stop offset="1" stop-color="#808080" stop-opacity="0.1"/>
</linearGradient>
<linearGradient id="paint4_linear" x1="-26208.2" y1="46925.3" x2="-24792.2" y2="35292.3" gradientUnits="userSpaceOnUse">
<stop stop-color="#808080" stop-opacity="0.25"/>
<stop offset="0.54" stop-color="#808080" stop-opacity="0.12"/>
<stop offset="1" stop-color="#808080" stop-opacity="0.1"/>
</linearGradient>
<linearGradient id="paint5_linear" x1="-21590" y1="49123.4" x2="-20174" y2="37490.4" gradientUnits="userSpaceOnUse">
<stop stop-color="#808080" stop-opacity="0.25"/>
<stop offset="0.54" stop-color="#808080" stop-opacity="0.12"/>
<stop offset="1" stop-color="#808080" stop-opacity="0.1"/>
</linearGradient>
<linearGradient id="paint6_linear" x1="-7636.09" y1="36668.8" x2="-9802.08" y2="34816.4" gradientUnits="userSpaceOnUse">
<stop stop-color="#808080" stop-opacity="0.25"/>
<stop offset="0.54" stop-color="#808080" stop-opacity="0.12"/>
<stop offset="1" stop-color="#808080" stop-opacity="0.1"/>
</linearGradient>
<linearGradient id="paint7_linear" x1="3283.8" y1="42294" x2="5868.25" y2="38215.2" gradientUnits="userSpaceOnUse">
<stop stop-color="#808080" stop-opacity="0.25"/>
<stop offset="0.54" stop-color="#808080" stop-opacity="0.12"/>
<stop offset="1" stop-color="#808080" stop-opacity="0.1"/>
</linearGradient>
<clipPath id="clip0">
<rect width="500" height="400" fill="white"/>
</clipPath>
</defs>
</svg>
